#!OML:ASF H:\Terrain\Patient Classification 1\Walking\liu\liu.ASF
:FULLY-SPECIFIED
:DEGREES
81
root 10.241077 18.035271 -28.100269 4.748117 -8.796898 2.583581
lowerback -5.621957 -1.154450 -4.235374
upperback -1.727154 -1.375286 2.893198
thorax 1.526096 -0.692644 5.288514
lowerneck -24.365330 -4.388934 -12.890571
upperneck 21.183361 -5.027000 13.246420
head 11.421740 -1.721951 6.159186
rclavicle 0.000000 0.000000
rhumerus -48.101349 15.363370 -98.017700
rradius 43.999889
rwrist -24.344980
rhand -33.729080 -24.930620
rfingers 7.837522
rthumb -4.353250 -57.867920
lclavicle 0.000000 0.000000
lhumerus -30.582201 -13.339260 96.149567
lradius 28.315760
lwrist 1.198417
lhand -14.215520 -26.372610
lfingers 7.837522
lthumb 14.483920 6.147988
rfemur -23.979561 0.525303 19.865229
rtibia 68.711388
rfoot -17.376150 -13.566410
rtoes -10.952106
lfemur -18.252300 3.226399 -29.732561
ltibia 30.309620
lfoot -17.289249 10.310729
ltoes 0.940812
82
root 10.248304 18.031530 -27.977949 4.693040 -8.519269 2.629957
lowerback -5.647829 -1.253461 -4.217411
upperback -1.666445 -1.506648 2.853433
thorax 1.616670 -0.761724 5.226936
lowerneck -24.455309 -4.335947 -12.834360
upperneck 21.316349 -4.978160 13.267650
head 11.478610 -1.690491 6.171022
rclavicle -0.000000 0.000000
rhumerus -48.144032 15.417710 -98.029915
rradius 44.099770
rwrist -24.218370
rhand -33.694099 -24.795650
rfingers 7.837522
rthumb -4.319480 -57.733501
lclavicle -0.000000 0.000000
lhumerus -29.965210 -13.832830 95.950470
lradius 28.905909
lwrist 1.759472
lhand -12.223750 -25.567190
lfingers 7.837522
lthumb 16.403309 6.820418
rfemur -25.090778 0.973820 19.991949
rtibia 68.142578
rfoot -18.187620 -13.666950
rtoes -12.406900
lfemur -17.659290 3.120018 -29.842119
ltibia 30.226900
lfoot -17.444241 10.123487
ltoes -0.134293
83
root 10.255949 18.023170 -27.853210 4.511617 -8.206945 2.754114
lowerback -5.531064 -1.332100 -4.300538
upperback -1.653256 -1.610202 2.820422
thorax 1.577697 -0.812946 5.234416
lowerneck -24.591049 -4.379452 -12.843270
upperneck 21.720051 -5.023271 13.140929
head 11.652410 -1.723975 6.133820
rclavicle -0.000000 0.000000
rhumerus -48.237862 15.143260 -97.904953
rradius 44.021561
rwrist -23.902340
rhand -33.758999 -25.523298
rfingers 7.837522
rthumb -4.382136 -58.460049
lclavicle -0.000000 0.000000
lhumerus -29.482201 -14.315400 95.854446
lradius 29.566130
lwrist 2.132790
lhand -11.081290 -25.280859
lfingers 7.837522
lthumb 17.503750 7.022070
rfemur -26.030510 1.259665 19.994371
rtibia 67.509857
rfoot -18.781399 -13.852409
rtoes -11.946770
lfemur -16.920090 2.963763 -30.047709
ltibia 30.093910
lfoot -16.957050 10.209110
ltoes -1.035120
84
root 10.266861 18.005241 -27.726160 4.184829 -7.995724 2.993265
lowerback -5.392079 -1.356256 -4.470422
upperback -1.531321 -1.637240 2.770064
thorax 1.631740 -0.830539 5.277778
lowerneck -24.738779 -4.460632 -13.009150
upperneck 21.967880 -5.056579 13.035440
head 11.775500 -1.761342 6.127407
rclavicle 0.000000 -0.000000
rhumerus -48.233242 15.009609 -97.693085
rradius 43.895172
rwrist -23.909271
rhand -33.943798 -26.394720
rfingers 7.837522
rthumb -4.560644 -59.328060
lclavicle 0.000000 -0.000000
lhumerus -28.912951 -14.985411 95.879196
lradius 30.344490
lwrist 2.789611
lhand -10.984512 -25.430899
lfingers 7.837522
lthumb 17.596920 6.864550
rfemur -26.728130 1.478400 19.845322
rtibia 66.772423
rfoot -19.400370 -14.138960
rtoes -10.085712
lfemur -15.987840 2.747932 -30.394100
ltibia 29.967741
lfoot -16.985649 10.435447
ltoes -2.512895
85
root 10.276035 17.991049 -27.599442 4.141247 -7.782676 3.193542
lowerback -5.612640 -1.296867 -4.540822
upperback -1.245310 -1.543487 2.643135
thorax 2.038344 -0.799588 5.185499
lowerneck -25.199572 -4.676936 -13.068330
upperneck 21.930590 -5.278185 13.013330
head 11.880111 -1.856239 6.094462
rclavicle -0.000000 -0.000000
rhumerus -47.821072 14.790270 -97.482109
rradius 43.853809
rwrist -24.102980
rhand -34.113968 -26.488770
rfingers 7.837522
rthumb -4.724896 -59.418922
lclavicle -0.000000 -0.000000
lhumerus -27.887310 -15.870801 95.746307
lradius 31.056080
lwrist 3.525280
lhand -11.177100 -25.599091
lfingers 7.837522
lthumb 17.411461 6.711144
rfemur -27.704819 1.670702 19.709690
rtibia 65.930367
rfoot -19.882719 -14.202319
rtoes -12.788490
lfemur -15.376350 2.590379 -30.694839
ltibia 29.850590
lfoot -17.611441 10.407187
ltoes -3.855830
86
root 10.285011 17.977301 -27.470411 4.266658 -7.285300 3.242910
lowerback -5.907451 -1.357774 -4.489397
upperback -1.107535 -1.615812 2.598277
thorax 2.351448 -0.845781 5.098247
lowerneck -25.247641 -4.880557 -13.230910
upperneck 21.773621 -5.525377 13.153140
head 11.875710 -1.963214 6.129387
rclavicle 0.000000 0.000000
rhumerus -47.567410 14.542110 -97.290276
rradius 43.838741
rwrist -24.068220
rhand -33.698940 -26.817120
rfingers 7.837522
rthumb -4.324210 -59.754971
lclavicle 0.000000 0.000000
lhumerus -26.991251 -16.496260 95.641045
lradius 31.551081
lwrist 4.140334
lhand -11.329340 -25.736479
lfingers 7.837522
lthumb 17.264830 6.585304
rfemur -28.774681 1.723909 19.710131
rtibia 65.000870
rfoot -20.204908 -14.013889
rtoes -7.838413
lfemur -14.937230 2.410298 -30.815290
ltibia 29.693291
lfoot -18.192570 10.050722
ltoes -2.568720
87
root 10.295879 17.965530 -27.337530 4.090493 -6.820803 3.319822
lowerback -5.814094 -1.443739 -4.514125
upperback -1.165494 -1.733831 2.659976
thorax 2.254824 -0.901606 5.169890
lowerneck -24.768372 -4.945336 -13.589621
upperneck 21.772961 -5.559642 13.197690
head 11.802450 -2.016014 6.199787
rclavicle 0.000000 0.000000
rhumerus -47.914898 14.480290 -97.050034
rradius 43.875809
rwrist -23.982420
rhand -32.871078 -27.632660
rfingers 7.837522
rthumb -3.524675 -60.583931
lclavicle 0.000000 0.000000
lhumerus -26.665651 -17.158131 95.924622
lradius 31.975679
lwrist 4.661206
lhand -12.142900 -26.128630
lfingers 7.837522
lthumb 16.481300 6.253093
rfemur -29.474279 1.846163 19.651829
rtibia 63.992172
rfoot -20.860950 -14.102990
rtoes -7.956641
lfemur -14.126310 2.278551 -30.961699
ltibia 29.532030
lfoot -18.696699 9.780188
ltoes 0.086710
88
root 10.303535 17.962559 -27.201571 3.968657 -6.639028 3.457707
lowerback -5.954663 -1.315622 -4.513344
upperback -1.059213 -1.555224 2.558028
thorax 2.420649 -0.818091 5.073354
lowerneck -24.725910 -5.162575 -13.674320
upperneck 21.811239 -5.808407 13.055570
head 11.842160 -2.154306 6.120202
rclavicle -0.000000 0.000000
rhumerus -47.948669 14.004539 -96.815834
rradius 43.711250
rwrist -24.004639
rhand -32.758881 -28.023710
rfingers 7.837522
rthumb -3.416380 -60.976631
lclavicle -0.000000 0.000000
lhumerus -26.081659 -18.316980 96.033081
lradius 32.661091
lwrist 5.411197
lhand -12.618759 -26.376240
lfingers 7.837522
lthumb 16.022711 6.039198
rfemur -30.255281 2.219085 19.470772
rtibia 62.914501
rfoot -21.617859 -14.201880
rtoes -11.410080
lfemur -13.353230 2.338842 -31.179281
ltibia 29.351629
lfoot -19.122839 9.732811
ltoes -0.428167
89
root 10.309035 17.961790 -27.068691 4.172861 -6.315925 3.327489
lowerback -6.380385 -1.282215 -4.259244
upperback -1.032843 -1.509706 2.493040
thorax 2.673594 -0.799457 4.858304
lowerneck -24.583570 -5.331623 -13.641320
upperneck 21.824770 -6.057821 12.978681
head 11.852830 -2.278826 6.043895
rclavicle -0.000000 0.000000
rhumerus -47.971661 13.624710 -96.823868
rradius 43.511818
rwrist -23.695320
rhand -33.273018 -27.896221
rfingers 7.837522
rthumb -3.912876 -60.841221
lclavicle -0.000000 0.000000
lhumerus -25.504601 -19.076530 95.862801
lradius 33.389290
lwrist 6.246306
lhand -12.456510 -26.595579
lfingers 7.837522
lthumb 16.179131 5.808440
rfemur -31.282021 2.588652 19.573509
rtibia 61.747948
rfoot -22.259380 -14.053821
rtoes -13.527030
lfemur -12.931380 2.420902 -31.082371
ltibia 29.056831
lfoot -19.343939 9.463531
ltoes -2.101902
90
root 10.313744 17.957390 -26.939770 4.247683 -5.864760 3.200208
lowerback -6.448772 -1.490885 -4.222878
upperback -1.222793 -1.793055 2.668259
thorax 2.549492 -0.934878 4.997652
lowerneck -24.103531 -5.254656 -13.954930
upperneck 22.058960 -5.932806 13.024440
head 11.841610 -2.256793 6.143115
rclavicle -0.000000 0.000000
rhumerus -48.469193 13.945250 -96.836082
rradius 43.480251
rwrist -23.398100
rhand -33.384338 -27.304859
rfingers 7.837522
rthumb -4.020324 -60.248100
lclavicle -0.000000 0.000000
lhumerus -25.464340 -19.031321 95.953995
lradius 33.985821
lwrist 6.728689
lhand -12.709510 -26.708439
lfingers 7.837522
lthumb 15.935370 5.713257
rfemur -32.124840 2.819124 19.682739
rtibia 60.500111
rfoot -22.832590 -13.824800
rtoes -15.391750
lfemur -12.342990 2.432661 -30.958950
ltibia 28.668640
lfoot -19.677238 9.060392
ltoes -2.071432
91
root 10.317902 17.949469 -26.808870 4.068636 -5.464558 3.283401
lowerback -6.335461 -1.716099 -4.379353
upperback -1.265836 -2.088735 2.717396
thorax 2.480214 -1.081500 5.115979
lowerneck -23.775730 -5.180890 -13.976490
upperneck 22.180511 -5.850735 12.937759
head 11.810260 -2.241690 6.130707
rclavicle -0.000000 0.000000
rhumerus -48.673351 14.105740 -96.765686
rradius 43.231098
rwrist -23.720840
rhand -32.860519 -25.159750
rfingers 7.837522
rthumb -3.514467 -58.111240
lclavicle -0.000000 0.000000
lhumerus -25.427599 -19.241201 95.959602
lradius 34.719742
lwrist 7.141992
lhand -13.420770 -26.618790
lfingers 7.837522
lthumb 15.249960 5.850966
rfemur -32.723461 2.956151 19.540180
rtibia 59.196388
rfoot -22.874392 -13.775300
rtoes -18.050890
lfemur -11.405460 2.309802 -31.066860
ltibia 28.248991
lfoot -20.191818 8.809461
ltoes -1.635227
92
root 10.324148 17.940340 -26.672911 3.884485 -5.075664 3.323815
lowerback -6.654516 -1.768899 -4.403960
upperback -0.970549 -2.144989 2.660449
thorax 2.969571 -1.127016 5.055116
lowerneck -23.534281 -5.264831 -13.724150
upperneck 21.870310 -6.002458 12.719190
head 11.659121 -2.321671 5.967852
rclavicle -0.000000 0.000000
rhumerus -48.303310 13.870670 -96.548759
rradius 42.850170
rwrist -24.090881
rhand -32.822681 -23.150820
rfingers 7.837522
rthumb -3.477991 -56.102749
lclavicle -0.000000 0.000000
lhumerus -24.868471 -19.966650 95.850594
lradius 35.530769
lwrist 7.588185
lhand -13.919620 -26.784119
lfingers 7.837522
lthumb 14.769151 5.717932
rfemur -33.261581 3.031556 19.458450
rtibia 57.854279
rfoot -22.335279 -13.895090
rtoes -21.288630
lfemur -10.339746 2.076030 -31.153210
ltibia 27.668961
lfoot -20.378269 8.782400
ltoes -1.080805
